<?xml version="1.0" encoding="UTF-8" standalone="no"?>
<!DOCTYPE svg PUBLIC "-//W3C//DTD SVG 1.1//EN" "http://www.w3.org/Graphics/SVG/1.1/DTD/svg11.dtd">
<svg width="100%" height="100%" viewBox="0 0 100 92" version="1.1" xmlns="http://www.w3.org/2000/svg" xmlns:xlink="http://www.w3.org/1999/xlink" xml:space="preserve" xmlns:serif="http://www.serif.com/" style="fill-rule:evenodd;clip-rule:evenodd;stroke-linejoin:round;stroke-miterlimit:1.41421;">
    <g transform="matrix(0.0833333,0,0,0.0833333,0,0)">
        <path d="M650,0L700,0C726.667,0 750,13.5 770,40.5C790,67.5 800,95.667 800,125L800,275L772,400L1100,400C1126.67,400 1150,413.5 1170,440.5C1190,467.5 1200,495.667 1200,525L1200,625C1200,655 1190.33,679.667 1171,699L933,1043C922.333,1059 909.667,1072.5 895,1083.5C880.333,1094.5 865.333,1100 850,1100L600,1100C595.333,1100 581.333,1091.67 558,1075C534.667,1058.33 512.667,1041.67 492,1025L461,1000L400,1000C370,1000 345.833,994 327.5,982C309.167,970 300,951 300,925L300,525C300,501 306.667,480 320,462L465,266L561,68C569.667,49.333 582.167,33.333 598.5,20C614.833,6.667 632,0 650,0ZM650,100L550,312L400,525L400,900L500,900L636,1000L850,1000L1100,625L1100,500L650,500L700,275L700,100L650,100ZM50,400L150,400C164,400 175.833,404.833 185.5,414.5C195.167,424.167 200,436 200,450L200,950C200,964 195.167,975.833 185.5,985.5C175.833,995.167 164,1000 150,1000L50,1000C36,1000 24.167,995.167 14.5,985.5C4.833,975.833 0,964 0,950L0,450C0,436 4.833,424.167 14.5,414.5C24.167,404.833 36,400 50,400Z" style="fill:white;fill-rule:nonzero;"/>
    </g>
</svg>
