<svg xmlns="http://www.w3.org/2000/svg" width="100%" height="100%" viewBox="0 0 100 92" fill-rule="evenodd" stroke-linejoin="round" stroke-miterlimit="1.41421"><path d="M54.166 91.667h4.167c2.222 0 4.167-1.125 5.833-3.375s2.5-4.597 2.5-7.042v-12.5l-2.333-10.417h27.333c2.223 0 4.167-1.125 5.833-3.375s2.5-4.597 2.5-7.042v-8.333c0-2.5-.806-4.556-2.417-6.167L77.75 4.75c-.89-1.333-1.944-2.458-3.167-3.375S72.11 0 70.833 0H50c-.39 0-1.556.694-3.5 2.083L41 6.25l-2.583 2.083h-5.083c-2.5 0-4.514.5-6.042 1.5S25 12.417 25 14.584v33.333c0 2 .556 3.75 1.667 5.25L38.75 69.5l8 16.5c.722 1.556 1.764 2.89 3.125 4s2.792 1.667 4.292 1.667zm0-8.333l-8.333-17.667-12.5-17.75v-31.25h8.333L53 8.334h17.833l20.833 31.25V50h-37.5l4.167 18.75v14.583h-4.167zm-50-25H12.5a4.02 4.02 0 0 0 2.958-1.208 4.02 4.02 0 0 0 1.208-2.958V12.5a4.02 4.02 0 0 0-1.208-2.958A4.02 4.02 0 0 0 12.5 8.334H4.167a4.02 4.02 0 0 0-2.958 1.208A4.02 4.02 0 0 0 0 12.5v41.667a4.02 4.02 0 0 0 1.208 2.958 4.02 4.02 0 0 0 2.958 1.208z" fill="#fff" fill-rule="nonzero"/></svg>