<svg xmlns="http://www.w3.org/2000/svg" width="100%" height="100%" viewBox="0 0 100 92" fill-rule="evenodd" stroke-linejoin="round" stroke-miterlimit="1.41421"><path d="M54.167 0h4.167c2.222 0 4.167 1.125 5.833 3.375s2.5 4.597 2.5 7.042v12.5l-2.333 10.417h27.333c2.223 0 4.167 1.125 5.833 3.375s2.5 4.597 2.5 7.042v8.333c0 2.5-.806 4.556-2.417 6.167L77.75 86.917c-.89 1.333-1.944 2.458-3.167 3.375s-2.472 1.375-3.75 1.375H50c-.39 0-1.556-.694-3.5-2.083L41 85.417l-2.583-2.083h-5.083c-2.5 0-4.514-.5-6.042-1.5S25 79.25 25 77.083V43.75c0-2 .556-3.75 1.667-5.25L38.75 22.167l8-16.5c.722-1.556 1.764-2.89 3.125-4S52.667 0 54.167 0zm0 8.333L45.833 26l-12.5 17.75V75h8.333L53 83.333h17.833l20.833-31.25V41.667h-37.5l4.167-18.75V8.333h-4.167zm-50 25H12.5a4.02 4.02 0 0 1 2.958 1.208 4.02 4.02 0 0 1 1.208 2.958v41.667a4.02 4.02 0 0 1-1.208 2.958 4.02 4.02 0 0 1-2.958 1.208H4.167a4.02 4.02 0 0 1-2.958-1.208A4.02 4.02 0 0 1 0 79.167V37.5a4.02 4.02 0 0 1 1.208-2.958 4.02 4.02 0 0 1 2.958-1.208z" fill="#fff" fill-rule="nonzero"/></svg>